<svg xmlns="http://www.w3.org/2000/svg" width="14" height="16" viewBox="0 0 14 16">
  <path d="M555.562,988.179h-1.64a0.435,0.435,0,0,0-.46.393v0.012a4.492,4.492,0,0,1-8.952,0,4.194,4.194,0,0,1,3.3-3.962,0.455,0.455,0,0,0,.195-0.1l0.867-.794a0.377,0.377,0,0,0,0-.566l-0.827-.759a0.469,0.469,0,0,0-.393-0.11A6.593,6.593,0,0,0,542,988.584c0,3.537,3.14,6.414,7,6.414s7-2.877,7-6.414v-0.012A0.415,0.415,0,0,0,555.562,988.179Zm-5.37-4.738-2.777,2.545a0.377,0.377,0,0,0,0,.567l1.322,1.212a0.463,0.463,0,0,0,.31.118h0a0.459,0.459,0,0,0,.309-0.118l4.41-4.041a0.377,0.377,0,0,0,0-.567l-4.41-4.041a0.465,0.465,0,0,0-.619,0l-1.322,1.213a0.376,0.376,0,0,0,0,.566Z" transform="translate(-542 -979)" fill="#ff9600" fill-rule="evenodd" />
</svg>
