<svg xmlns="http://www.w3.org/2000/svg" width="18" height="18" viewBox="0 0 18 18">
  <path d="M1387.79,133.5l-2.09-1.206-1.2-2.088h-2.41L1380,129l-2.09,1.206h-2.41l-1.21,2.088-2.08,1.206v2.411L1371,138l1.21,2.089V142.5l2.08,1.205,1.21,2.088h2.41L1380,147l2.09-1.206h2.41l1.2-2.088,2.09-1.206v-2.411L1389,138l-1.21-2.089V133.5h0Zm-8.6,8.182a0.879,0.879,0,0,1-1.22,0l-2.63-2.631a0.845,0.845,0,0,1,0-1.195l0.69-.7a0.853,0.853,0,0,1,1.2,0l1.35,1.35,4.19-4.192a0.839,0.839,0,0,1,1.19,0l0.7,0.7a0.844,0.844,0,0,1,0,1.194Z" transform="translate(-1371 -129)" fill="#7ac00c" fill-rule="evenodd" />
</svg>
